<svg width="839" height="839" viewBox="0 0 839 839" fill="none" xmlns="http://www.w3.org/2000/svg">
  <g transform="translate(-0.0000 -0.0000) scale(10.7564)">
    <circle cx="6.5000" cy="6.5000" r="1.2" fill="black"/>
    <circle cx="13.0000" cy="6.5000" r="1.2" fill="black"/>
    <circle cx="19.5000" cy="6.5000" r="1.2" fill="black"/>
    <circle cx="26.0000" cy="6.5000" r="1.2" fill="black"/>
    <circle cx="32.5000" cy="6.5000" r="1.2" fill="black"/>
    <circle cx="39.0000" cy="6.5000" r="1.2" fill="black"/>
    <circle cx="45.5000" cy="6.5000" r="1.2" fill="black"/>
    <circle cx="52.0000" cy="6.5000" r="1.2" fill="black"/>
    <circle cx="58.5000" cy="6.5000" r="1.2" fill="black"/>
    <circle cx="65.0000" cy="6.5000" r="1.2" fill="black"/>
    <circle cx="71.5000" cy="6.5000" r="1.2" fill="black"/>
    <circle cx="6.5000" cy="13.0000" r="1.2" fill="black"/>
    <circle cx="13.0000" cy="13.0000" r="1.2" fill="black"/>
    <circle cx="19.5000" cy="13.0000" r="1.2" fill="black"/>
    <circle cx="26.0000" cy="13.0000" r="1.2" fill="black"/>
    <circle cx="32.5000" cy="13.0000" r="1.2" fill="black"/>
    <circle cx="39.0000" cy="13.0000" r="1.2" fill="black"/>
    <circle cx="45.5000" cy="13.0000" r="1.2" fill="black"/>
    <circle cx="52.0000" cy="13.0000" r="1.2" fill="black"/>
    <circle cx="58.5000" cy="13.0000" r="1.2" fill="black"/>
    <circle cx="65.0000" cy="13.0000" r="1.2" fill="black"/>
    <circle cx="71.5000" cy="13.0000" r="1.2" fill="black"/>
    <circle cx="6.5000" cy="19.5000" r="1.2" fill="black"/>
    <circle cx="13.0000" cy="19.5000" r="1.2" fill="black"/>
    <circle cx="19.5000" cy="19.5000" r="1.2" fill="black"/>
    <circle cx="26.0000" cy="19.5000" r="1.2" fill="black"/>
    <circle cx="32.5000" cy="19.5000" r="1.2" fill="black"/>
    <circle cx="39.0000" cy="19.5000" r="1.2" fill="black"/>
    <circle cx="45.5000" cy="19.5000" r="1.2" fill="black"/>
    <circle cx="52.0000" cy="19.5000" r="1.2" fill="black"/>
    <circle cx="58.5000" cy="19.5000" r="1.2" fill="black"/>
    <circle cx="65.0000" cy="19.5000" r="1.2" fill="black"/>
    <circle cx="71.5000" cy="19.5000" r="1.2" fill="black"/>
    <circle cx="6.5000" cy="26.0000" r="1.2" fill="black"/>
    <circle cx="13.0000" cy="26.0000" r="1.2" fill="black"/>
    <circle cx="19.5000" cy="26.0000" r="1.2" fill="black"/>
    <circle cx="26.0000" cy="26.0000" r="1.2" fill="black"/>
    <circle cx="32.5000" cy="26.0000" r="1.2" fill="black"/>
    <circle cx="39.0000" cy="26.0000" r="1.2" fill="black"/>
    <circle cx="45.5000" cy="26.0000" r="1.2" fill="black"/>
    <circle cx="52.0000" cy="26.0000" r="1.2" fill="black"/>
    <circle cx="58.5000" cy="26.0000" r="1.2" fill="black"/>
    <circle cx="65.0000" cy="26.0000" r="1.2" fill="black"/>
    <circle cx="71.5000" cy="26.0000" r="1.2" fill="black"/>
    <circle cx="6.5000" cy="32.5000" r="1.2" fill="black"/>
    <circle cx="13.0000" cy="32.5000" r="1.2" fill="black"/>
    <circle cx="19.5000" cy="32.5000" r="1.2" fill="black"/>
    <circle cx="26.0000" cy="32.5000" r="1.2" fill="black"/>
    <circle cx="32.5000" cy="32.5000" r="1.2" fill="black"/>
    <circle cx="39.0000" cy="32.5000" r="1.2" fill="black"/>
    <circle cx="45.5000" cy="32.5000" r="1.2" fill="black"/>
    <circle cx="52.0000" cy="32.5000" r="1.2" fill="black"/>
    <circle cx="58.5000" cy="32.5000" r="1.2" fill="black"/>
    <circle cx="65.0000" cy="32.5000" r="1.2" fill="black"/>
    <circle cx="71.5000" cy="32.5000" r="1.2" fill="black"/>
    <circle cx="6.5000" cy="39.0000" r="1.2" fill="black"/>
    <circle cx="13.0000" cy="39.0000" r="1.2" fill="black"/>
    <circle cx="19.5000" cy="39.0000" r="1.2" fill="black"/>
    <circle cx="26.0000" cy="39.0000" r="1.2" fill="black"/>
    <circle cx="32.5000" cy="39.0000" r="1.2" fill="black"/>
    <circle cx="39.0000" cy="39.0000" r="1.2" fill="black"/>
    <circle cx="45.5000" cy="39.0000" r="1.2" fill="black"/>
    <circle cx="52.0000" cy="39.0000" r="1.2" fill="black"/>
    <circle cx="58.5000" cy="39.0000" r="1.2" fill="black"/>
    <circle cx="65.0000" cy="39.0000" r="1.2" fill="black"/>
    <circle cx="71.5000" cy="39.0000" r="1.2" fill="black"/>
    <circle cx="6.5000" cy="45.5000" r="1.2" fill="black"/>
    <circle cx="13.0000" cy="45.5000" r="1.2" fill="black"/>
    <circle cx="19.5000" cy="45.5000" r="1.2" fill="black"/>
    <circle cx="26.0000" cy="45.5000" r="1.2" fill="black"/>
    <circle cx="32.5000" cy="45.5000" r="1.2" fill="black"/>
    <circle cx="39.0000" cy="45.5000" r="1.2" fill="black"/>
    <circle cx="45.5000" cy="45.5000" r="1.2" fill="black"/>
    <circle cx="52.0000" cy="45.5000" r="1.2" fill="black"/>
    <circle cx="58.5000" cy="45.5000" r="1.2" fill="black"/>
    <circle cx="65.0000" cy="45.5000" r="1.2" fill="black"/>
    <circle cx="71.5000" cy="45.5000" r="1.2" fill="black"/>
    <circle cx="6.5000" cy="52.0000" r="1.2" fill="black"/>
    <circle cx="13.0000" cy="52.0000" r="1.2" fill="black"/>
    <circle cx="19.5000" cy="52.0000" r="1.2" fill="black"/>
    <circle cx="26.0000" cy="52.0000" r="1.2" fill="black"/>
    <circle cx="32.5000" cy="52.0000" r="1.2" fill="black"/>
    <circle cx="39.0000" cy="52.0000" r="1.2" fill="black"/>
    <circle cx="45.5000" cy="52.0000" r="1.2" fill="black"/>
    <circle cx="52.0000" cy="52.0000" r="1.2" fill="black"/>
    <circle cx="58.5000" cy="52.0000" r="1.2" fill="black"/>
    <circle cx="65.0000" cy="52.0000" r="1.2" fill="black"/>
    <circle cx="71.5000" cy="52.0000" r="1.2" fill="black"/>
    <circle cx="6.5000" cy="58.5000" r="1.2" fill="black"/>
    <circle cx="13.0000" cy="58.5000" r="1.2" fill="black"/>
    <circle cx="19.5000" cy="58.5000" r="1.2" fill="black"/>
    <circle cx="26.0000" cy="58.5000" r="1.2" fill="black"/>
    <circle cx="32.5000" cy="58.5000" r="1.2" fill="black"/>
    <circle cx="39.0000" cy="58.5000" r="1.2" fill="black"/>
    <circle cx="45.5000" cy="58.5000" r="1.2" fill="black"/>
    <circle cx="52.0000" cy="58.5000" r="1.2" fill="black"/>
    <circle cx="58.5000" cy="58.5000" r="1.2" fill="black"/>
    <circle cx="65.0000" cy="58.5000" r="1.2" fill="black"/>
    <circle cx="71.5000" cy="58.5000" r="1.2" fill="black"/>
    <circle cx="6.5000" cy="65.0000" r="1.2" fill="black"/>
    <circle cx="13.0000" cy="65.0000" r="1.2" fill="black"/>
    <circle cx="19.5000" cy="65.0000" r="1.2" fill="black"/>
    <circle cx="26.0000" cy="65.0000" r="1.2" fill="black"/>
    <circle cx="32.5000" cy="65.0000" r="1.2" fill="black"/>
    <circle cx="39.0000" cy="65.0000" r="1.2" fill="black"/>
    <circle cx="45.5000" cy="65.0000" r="1.2" fill="black"/>
    <circle cx="52.0000" cy="65.0000" r="1.2" fill="black"/>
    <circle cx="58.5000" cy="65.0000" r="1.2" fill="black"/>
    <circle cx="65.0000" cy="65.0000" r="1.2" fill="black"/>
    <circle cx="71.5000" cy="65.0000" r="1.2" fill="black"/>
    <circle cx="6.5000" cy="71.5000" r="1.2" fill="black"/>
    <circle cx="13.0000" cy="71.5000" r="1.2" fill="black"/>
    <circle cx="19.5000" cy="71.5000" r="1.2" fill="black"/>
    <circle cx="26.0000" cy="71.5000" r="1.2" fill="black"/>
    <circle cx="32.5000" cy="71.5000" r="1.2" fill="black"/>
    <circle cx="39.0000" cy="71.5000" r="1.2" fill="black"/>
    <circle cx="45.5000" cy="71.5000" r="1.2" fill="black"/>
    <circle cx="52.0000" cy="71.5000" r="1.2" fill="black"/>
    <circle cx="58.5000" cy="71.5000" r="1.2" fill="black"/>
    <circle cx="65.0000" cy="71.5000" r="1.2" fill="black"/>
    <circle cx="71.5000" cy="71.5000" r="1.2" fill="black"/>
  </g>
</svg>